# xmcd CD database file
# Copyright (C) 1995-1998 Ti Kan
#
# Track frame offsets:
#	150
#	34185
#	52388
#	72206
#	92252
#	109011
#	128058
#	147984
#	169715
#	193144
#	211222
#	227684
#	245605
#	275232
#	291593
#
# Disc length: 4382 seconds
#
# Revision: 1
# Processed by: cddbd v1.5.1PL0 Copyright (c) Steve Scherf et al.
# Submitted via: CDex 1.30
#
DISCID=eb111c0f
DTITLE=The Music Man 850-228-1778 (www.DiscUWant.com) - [www.DiscUWant.com] 
DTITLE=Stone Cold Blues #40
DYEAR=2004
DGENRE=Blues
TTITLE0=I Found Love (On A Lonely Highway) - Jeff Floyd
TTITLE1=Hole In The Wall - Mel Waiters
TTITLE2=Let's Go Dancing - Donnie Ray
TTITLE3=Party Ain't Over (Remix) - Kenne Wayne
TTITLE4=Can U Bagg It Up? - Nathaniel Kimble
TTITLE5=I Can Bagg It Up - Sheba Potts-Wright
TTITLE6=Juke Joint - Jackie Neal
TTITLE7=Soul Heaven - Johnnie Taylor
TTITLE8=It's A Miracle - Tyrone Davis
TTITLE9=She's Makin' Eyes - Omar Cunningham
TTITLE10=Everything You Eat Ain't Good - Marvin Sease
TTITLE11=The Same Thing It Took To Get Her - Sir Charles
TTITLE12=Stand Up In It - Theodis Ealey
TTITLE13=Love Mechanic - Willie Clayton
TTITLE14=Mr. Right Or Mr. Wrong - Peggy Scott-Adams
EXTD=YEAR: 2004  ID3G:   0
EXTT0=
EXTT1=
EXTT2=
EXTT3=
EXTT4=
EXTT5=
EXTT6=
EXTT7=
EXTT8=
EXTT9=
EXTT10=
EXTT11=
EXTT12=
EXTT13=
EXTT14=
PLAYORDER=
